<svg width="176" height="40" viewBox="0 0 176 40" fill="none" xmlns="http://www.w3.org/2000/svg">
<g clip-path="url(#clip0_66_387)">
<path d="M78.4698 29.3929C77.0959 29.3929 76.0374 29.1556 75.3004 28.6841C74.5635 28.2126 74.0171 27.688 73.6705 27.1134H73.1178V28.9589H69.302V7.41943H73.1802V15.4538H73.7329C73.9577 15.0853 74.2606 14.7356 74.6416 14.4077C75.0194 14.0799 75.5221 13.8082 76.1498 13.5927C76.7743 13.3773 77.5487 13.268 78.473 13.268C79.7032 13.268 80.843 13.5709 81.889 14.1767C82.9351 14.7824 83.7782 15.6692 84.4121 16.8402C85.0491 18.008 85.3676 19.4257 85.3676 21.0869V21.5802C85.3676 23.2414 85.0491 24.6591 84.4121 25.8269C83.7751 26.9979 82.9351 27.8847 81.889 28.4905C80.843 29.0962 79.7032 29.3991 78.473 29.3991M77.302 26.0143C78.4917 26.0143 79.4878 25.6302 80.2872 24.8589C81.0865 24.0877 81.4862 22.9667 81.4862 21.4897V21.1806C81.4862 19.7036 81.0897 18.5795 80.3028 17.8113C79.5128 17.0432 78.5136 16.656 77.302 16.656C76.0904 16.656 75.1162 17.04 74.3168 17.8113C73.5175 18.5795 73.1178 19.7036 73.1178 21.1806V21.4897C73.1178 22.9667 73.5175 24.0908 74.3168 24.8589C75.1162 25.6271 76.1123 26.0143 77.302 26.0143Z" fill="white"/>
<path d="M95.0507 29.3929C93.5332 29.3929 92.1686 29.0837 90.9571 28.4686C89.7455 27.8534 88.7931 26.9604 88.0937 25.7894C87.3973 24.6216 87.0476 23.2164 87.0476 21.574V21.0806C87.0476 19.4381 87.3973 18.033 88.0937 16.8652C88.79 15.6973 89.7455 14.8043 90.9571 14.186C92.1686 13.5709 93.5332 13.2617 95.0507 13.2617C96.5683 13.2617 97.9329 13.5677 99.1444 14.186C100.356 14.8011 101.308 15.6942 102.008 16.8652C102.704 18.0361 103.054 19.4413 103.054 21.0806V21.574C103.054 23.2164 102.704 24.6216 102.008 25.7894C101.311 26.9604 100.356 27.8503 99.1444 28.4686C97.9329 29.0837 96.5683 29.3929 95.0507 29.3929ZM95.0507 25.9456C96.2404 25.9456 97.224 25.5615 98.0047 24.7902C98.7853 24.0221 99.1725 22.9167 99.1725 21.4803V21.1712C99.1725 19.7348 98.7884 18.6325 98.0172 17.8612C97.249 17.0931 96.256 16.7059 95.0476 16.7059C93.8392 16.7059 92.8712 17.09 92.0937 17.8612C91.313 18.6294 90.9258 19.7348 90.9258 21.1712V21.4803C90.9258 22.9167 91.3161 24.0189 92.0937 24.7902C92.8743 25.5584 93.8579 25.9456 95.0476 25.9456" fill="white"/>
<path d="M105.383 28.9616V13.6954H109.199V15.697H109.752C109.998 15.163 110.461 14.6572 111.138 14.1732C111.816 13.6923 112.84 13.4487 114.217 13.4487C115.407 13.4487 116.45 13.7204 117.343 14.2637C118.236 14.807 118.929 15.5565 119.419 16.512C119.913 17.4675 120.159 18.5791 120.159 19.8531V28.9647H116.281V20.1622C116.281 19.0131 115.997 18.1513 115.435 17.5768C114.87 17.0022 114.064 16.7149 113.018 16.7149C111.828 16.7149 110.904 17.1115 110.248 17.8984C109.593 18.6884 109.265 19.7907 109.265 21.2083V28.9647H105.386L105.383 28.9616Z" fill="white"/>
<path d="M124.987 11.9128C124.29 11.9128 123.7 11.6879 123.216 11.2352C122.735 10.7855 122.492 10.1891 122.492 9.44905C122.492 8.709 122.732 8.11572 123.216 7.66295C123.697 7.2133 124.287 6.98535 124.987 6.98535C125.686 6.98535 126.298 7.21018 126.773 7.66295C127.244 8.11572 127.482 8.709 127.482 9.44905C127.482 10.1891 127.244 10.7824 126.773 11.2352C126.301 11.6879 125.705 11.9128 124.987 11.9128ZM123.048 13.6989H126.926V28.9651H123.048V13.6989Z" fill="white"/>
<path d="M135.816 28.9618C134.81 28.9618 133.995 28.6496 133.368 28.0219C132.743 27.3974 132.428 26.5606 132.428 25.5145V16.8962H128.612V13.6956H132.428V8.95557H136.306V13.6956H140.493V16.8962H136.306V24.8369C136.306 25.4521 136.593 25.7612 137.168 25.7612H140.122V28.9618H135.813H135.816Z" fill="white"/>
<path d="M149.658 29.3929C148.141 29.3929 146.776 29.0837 145.564 28.4686C144.353 27.8534 143.401 26.9604 142.701 25.7894C142.005 24.6216 141.655 23.2164 141.655 21.574V21.0806C141.655 19.4381 142.005 18.033 142.701 16.8652C143.397 15.6973 144.353 14.8043 145.564 14.186C146.776 13.5709 148.141 13.2617 149.658 13.2617C151.176 13.2617 152.54 13.5677 153.752 14.186C154.963 14.8011 155.916 15.6942 156.615 16.8652C157.312 18.0361 157.661 19.4413 157.661 21.0806V21.574C157.661 23.2164 157.312 24.6216 156.615 25.7894C155.919 26.9604 154.963 27.8503 153.752 28.4686C152.54 29.0837 151.176 29.3929 149.658 29.3929ZM149.658 25.9456C150.848 25.9456 151.831 25.5615 152.612 24.7902C153.393 24.0221 153.78 22.9167 153.78 21.4803V21.1712C153.78 19.7348 153.396 18.6325 152.625 17.8612C151.856 17.0931 150.863 16.7059 149.655 16.7059C148.447 16.7059 147.479 17.09 146.701 17.8612C145.92 18.6294 145.533 19.7348 145.533 21.1712V21.4803C145.533 22.9167 145.924 24.0189 146.701 24.7902C147.482 25.5584 148.465 25.9456 149.655 25.9456" fill="white"/>
<path d="M167.294 29.3929C165.777 29.3929 164.412 29.0837 163.201 28.4686C161.989 27.8534 161.037 26.9604 160.337 25.7894C159.641 24.6216 159.291 23.2164 159.291 21.574V21.0806C159.291 19.4381 159.641 18.033 160.337 16.8652C161.034 15.6973 161.989 14.8043 163.201 14.186C164.412 13.5709 165.777 13.2617 167.294 13.2617C168.812 13.2617 170.177 13.5677 171.388 14.186C172.6 14.8011 173.552 15.6942 174.251 16.8652C174.948 18.0361 175.298 19.4413 175.298 21.0806V21.574C175.298 23.2164 174.948 24.6216 174.251 25.7894C173.555 26.9604 172.6 27.8503 171.388 28.4686C170.177 29.0837 168.812 29.3929 167.294 29.3929ZM167.294 25.9456C168.484 25.9456 169.468 25.5615 170.248 24.7902C171.029 24.0221 171.419 22.9167 171.419 21.4803V21.1712C171.419 19.7348 171.035 18.6325 170.264 17.8612C169.496 17.0931 168.503 16.7059 167.294 16.7059C166.086 16.7059 165.118 17.09 164.34 17.8612C163.56 18.6294 163.169 19.7348 163.169 21.1712V21.4803C163.169 22.9167 163.56 24.0189 164.34 24.7902C165.121 25.5584 166.105 25.9456 167.294 25.9456Z" fill="white"/>
<path d="M56.9087 13.9797L47.0226 4.09368C41.5738 -1.35831 32.7026 -1.35831 27.2537 4.09368L20.0187 11.3286L8.68696 0L6.03903 2.65105L17.3677 13.9797L14.0141 17.3333L2.6854 6.00156L0.0343482 8.65261L11.363 19.9813L0 31.3474L2.65105 33.9984L14.0172 22.6323L17.3708 25.9859L6.00468 37.3521L8.65262 40L20.0187 28.6339L27.2537 35.8689C29.9797 38.5948 33.5582 39.9563 37.1397 39.9563C40.7213 39.9563 44.2998 38.5948 47.0258 35.8689L56.9118 25.9828L50.9102 19.9813L56.9118 13.9797H56.9087ZM29.9016 6.74473C31.8345 4.81187 34.4044 3.74707 37.1366 3.74707C39.8689 3.74707 42.4387 4.81187 44.3716 6.74473L51.6066 13.9797L48.2529 17.3333L47.0195 16.0999C41.5707 10.6479 32.6995 10.6479 27.2506 16.0999L26.0172 17.3333L22.6635 13.9797L29.8985 6.74473H29.9016ZM45.605 19.9844L44.3716 21.2178C40.381 25.2084 33.8892 25.2084 29.9016 21.2178L28.6682 19.9844L29.9016 18.751C31.8345 16.8181 34.4044 15.7533 37.1366 15.7533C39.8689 15.7533 42.4387 16.8181 44.3716 18.751L45.605 19.9844ZM16.662 19.9844L20.0156 16.6308L23.3692 19.9844L20.0156 23.338L16.662 19.9844ZM51.6066 25.9859L44.3716 33.2209C42.4387 35.1538 39.8689 36.2186 37.1366 36.2186C34.4044 36.2186 31.8345 35.1538 29.9016 33.2209L22.6667 25.9859L26.0203 22.6323L27.2537 23.8657C29.9797 26.5917 33.5582 27.9532 37.1397 27.9532C40.7213 27.9532 44.2998 26.5917 47.0258 23.8657L48.2592 22.6323L51.6128 25.9859H51.6066Z" fill="#99AE80"/>
</g>
<defs>
<clipPath id="clip0_66_387">
<rect width="175.297" height="40" fill="white"/>
</clipPath>
</defs>
</svg>
