<svg width="20" height="22" viewBox="0 0 20 22" fill="none" xmlns="http://www.w3.org/2000/svg">
<g clip-path="url(#clip0_12_1090)">
<path d="M11.9336 10.0584L14.8118 7.34339L2.01517 0.306351C1.8237 0.202773 1.62596 0.15883 1.42822 0.149414L11.9336 10.0584Z" fill="#4D4C4D"/>
<path d="M0.17263 0.843018C0.0659134 1.03448 0 1.25419 0 1.49901V20.5009C0 20.7457 0.0659134 20.9654 0.17263 21.1569L10.9385 11L0.17263 0.843018Z" fill="#4D4C4D"/>
<path d="M19.2938 9.80732L16.0703 8.03394L12.9285 10.9969L16.0703 13.9599L19.2938 12.1865C20.2323 11.6686 20.2323 10.3189 19.2938 9.80418V9.80732Z" fill="#4D4C4D"/>
<path d="M11.9336 11.9417L1.42822 21.8506C1.62596 21.8412 1.8237 21.7973 2.01517 21.6937L14.8149 14.6567L11.9367 11.9417H11.9336Z" fill="#4D4C4D"/>
</g>
<defs>
<clipPath id="clip0_12_1090">
<rect width="20" height="21.7012" fill="white" transform="translate(0 0.149414)"/>
</clipPath>
</defs>
</svg>
