<svg width="20" height="20" viewBox="0 0 20 20" fill="none" xmlns="http://www.w3.org/2000/svg">
<g clip-path="url(#clip0_12_1077)">
<path fill-rule="evenodd" clip-rule="evenodd" d="M10.0098 0.16626C4.47407 0.16626 0 4.67458 0 10.2494C0 14.7064 2.86693 18.4784 6.84442 19.814C7.341 19.9143 7.52446 19.5963 7.52446 19.3297C7.52446 19.0948 7.50734 18.2949 7.50734 17.4608C4.72358 18.0625 4.14384 16.2597 4.14384 16.2597C3.69618 15.0904 3.03327 14.792 3.03327 14.792C2.12084 14.1731 3.09931 14.1731 3.09931 14.1731C4.10959 14.2392 4.64041 15.2078 4.64041 15.2078C5.53571 16.744 6.97652 16.3086 7.55626 16.042C7.63943 15.3913 7.90362 14.9412 8.18493 14.6893C5.9638 14.4544 3.62769 13.5885 3.62769 9.71371C3.62769 8.61293 4.02397 7.71029 4.65509 7.00824C4.55479 6.75872 4.20744 5.72154 4.75538 4.337C4.75538 4.337 5.59932 4.07037 7.50489 5.37174C8.32192 5.15158 9.16096 5.03906 10.0073 5.03661C10.8513 5.03661 11.7148 5.15403 12.5098 5.37174C14.4154 4.07037 15.2617 4.337 15.2617 4.337C15.8097 5.72154 15.4599 6.75872 15.362 7.00824C16.0078 7.71029 16.3894 8.61049 16.3894 9.71371C16.3894 13.586 14.0533 14.4373 11.8151 14.6893C12.1795 15.0073 12.4951 15.6066 12.4951 16.5581C12.4951 17.9109 12.478 18.9945 12.478 19.3297C12.478 19.5963 12.6614 19.9143 13.158 19.814C17.1355 18.4784 20.0024 14.7064 20.0024 10.2494C20.0171 4.67458 15.5259 0.16626 10.0098 0.16626Z" fill="#4D4C4D"/>
</g>
<defs>
<clipPath id="clip0_12_1077">
<rect width="20" height="19.6673" fill="white" transform="translate(0 0.16626)"/>
</clipPath>
</defs>
</svg>
