<svg width="20" height="26" viewBox="0 0 20 26" fill="none" xmlns="http://www.w3.org/2000/svg">
    <g clip-path="url(#clip0_12_1097)">
        <path d="M10.1567 7.76508C9.18742 7.76508 7.68611 6.65868 6.10648 6.70111C4.02097 6.72722 2.10844 7.91195 1.03141 9.79184C-1.13243 13.5614 0.473319 19.1293 2.58494 22.1907C3.61953 23.6822 4.84342 25.3597 6.46549 25.3075C8.01901 25.2422 8.60321 24.2958 10.4896 24.2958C12.3761 24.2958 12.895 25.3075 14.5399 25.2683C16.2142 25.2422 17.2782 23.7507 18.2997 22.2462C19.4812 20.5131 19.974 18.8356 20.0001 18.7442C19.9609 18.7311 16.7462 17.4909 16.707 13.7638C16.6809 10.6469 19.2429 9.15542 19.3637 9.09015C17.9015 6.94589 15.6561 6.70764 14.8728 6.65216C12.8265 6.49224 11.113 7.77161 10.1567 7.77161V7.76508ZM13.6097 4.62213C14.4746 3.58427 15.0458 2.13192 14.8859 0.692627C13.6489 0.744846 12.1639 1.51834 11.2729 2.5562C10.4766 3.47657 9.78468 4.95503 9.97071 6.36495C11.3382 6.47265 12.7481 5.65999 13.6097 4.61887V4.62213Z"
              fill="#4D4C4D"/>
    </g>
    <defs>
        <clipPath id="clip0_12_1097">
            <rect width="20" height="24.6149" fill="white" transform="translate(0 0.692627)"/>
        </clipPath>
    </defs>
</svg>
