<svg width="32" height="32" viewBox="0 0 32 32" fill="none" xmlns="http://www.w3.org/2000/svg">
    <path d="M21.6747 27.3335L20.2823 25.9412L22.3823 23.8078L20.2823 21.7078L21.6747 20.2822L23.808 22.4155L25.908 20.2822L27.3337 21.7078L25.2003 23.8078L27.3337 25.9412L25.908 27.3335L23.808 25.2335L21.6747 27.3335ZM8.33366 25.3335C8.79699 25.3335 9.19055 25.1715 9.51433 24.8475C9.83833 24.5237 10.0003 24.1302 10.0003 23.6668C10.0003 23.2035 9.83833 22.8099 9.51433 22.4862C9.19055 22.1622 8.79699 22.0002 8.33366 22.0002C7.87033 22.0002 7.47677 22.1622 7.15299 22.4862C6.82899 22.8099 6.66699 23.2035 6.66699 23.6668C6.66699 24.1302 6.82899 24.5237 7.15299 24.8475C7.47677 25.1715 7.87033 25.3335 8.33366 25.3335ZM8.33366 27.3335C7.31655 27.3335 6.45121 26.9766 5.73766 26.2628C5.02388 25.5493 4.66699 24.6839 4.66699 23.6668C4.66699 22.6497 5.02388 21.7844 5.73766 21.0708C6.45121 20.3571 7.31655 20.0002 8.33366 20.0002C9.13877 20.0002 9.8631 20.2365 10.5067 20.7092C11.1502 21.1818 11.5891 21.8071 11.8233 22.5848C12.7755 22.4173 13.5644 21.9652 14.19 21.2285C14.8158 20.4916 15.1287 19.6377 15.1287 18.6668V13.5258C15.1287 11.7754 15.7465 10.2823 16.9823 9.0465C18.2183 7.8105 19.7115 7.1925 21.462 7.1925H23.4823L21.049 4.75916L22.4747 3.3335L27.3337 8.1925L22.4747 13.0515L21.049 11.6592L23.4697 9.1925H21.462C20.2569 9.1925 19.2333 9.61339 18.3913 10.4552C17.5495 11.2972 17.1287 12.3207 17.1287 13.5258V18.6668C17.1287 20.1779 16.6257 21.4946 15.6197 22.6168C14.6137 23.7391 13.3619 24.4018 11.8643 24.6052C11.6577 25.4103 11.2257 26.0663 10.5683 26.5732C9.91099 27.0801 9.1661 27.3335 8.33366 27.3335ZM6.05933 11.7182L4.66699 10.3258L6.76699 8.1925L4.66699 6.0925L6.05933 4.66683L8.19266 6.80016L10.2927 4.66683L11.7183 6.0925L9.58499 8.1925L11.7183 10.3258L10.2927 11.7182L8.19266 9.61816L6.05933 11.7182Z"
          fill="white"/>
</svg>
