<svg width="32" height="32" viewBox="0 0 32 32" fill="none" xmlns="http://www.w3.org/2000/svg">
    <path d="M16.0003 27.3332C12.7645 27.3332 10.0667 26.8763 7.90666 25.9625C5.74688 25.0489 4.66699 23.9075 4.66699 22.5382V9.33317C4.66699 8.04606 5.77299 6.9465 7.98499 6.0345C10.197 5.1225 12.8688 4.6665 16.0003 4.6665C19.1319 4.6665 21.8037 5.1225 24.0157 6.0345C26.2277 6.9465 27.3337 8.04606 27.3337 9.33317V22.5382C27.3337 23.9075 26.2538 25.0489 24.094 25.9625C21.934 26.8763 19.2361 27.3332 16.0003 27.3332ZM16.0003 11.9435C17.9439 11.9435 19.9008 11.6687 21.871 11.1192C23.841 10.5696 24.9824 9.97684 25.2953 9.34084C24.9909 8.68795 23.8613 8.07895 21.9067 7.51384C19.952 6.94895 17.9832 6.6665 16.0003 6.6665C14.0208 6.6665 12.0588 6.94128 10.1143 7.49084C8.16988 8.04039 7.02499 8.63995 6.67966 9.2895C7.01655 9.95617 8.15288 10.5652 10.0887 11.1165C12.0247 11.6678 13.9952 11.9435 16.0003 11.9435ZM16.0003 18.6152C16.9252 18.6152 17.8252 18.5707 18.7003 18.4818C19.5754 18.3929 20.4118 18.2631 21.2093 18.0922C22.0067 17.9213 22.7532 17.7093 23.449 17.4562C24.1448 17.2033 24.773 16.9169 25.3337 16.5972V11.8665C24.773 12.1861 24.1448 12.4724 23.449 12.7255C22.7532 12.9784 22.0067 13.1903 21.2093 13.3612C20.4118 13.5323 19.5754 13.6623 18.7003 13.7512C17.8252 13.8401 16.9252 13.8845 16.0003 13.8845C15.0585 13.8845 14.141 13.8378 13.2477 13.7445C12.3545 13.6514 11.5114 13.5194 10.7183 13.3485C9.92521 13.1776 9.18633 12.9678 8.50166 12.7192C7.81699 12.4703 7.20544 12.1861 6.66699 11.8665V16.5972C7.20544 16.9169 7.81699 17.2012 8.50166 17.4498C9.18633 17.6985 9.92521 17.9083 10.7183 18.0792C11.5114 18.2503 12.3545 18.3824 13.2477 18.4755C14.141 18.5686 15.0585 18.6152 16.0003 18.6152ZM16.0003 25.3332C17.0823 25.3332 18.1448 25.2618 19.1877 25.1192C20.2303 24.9763 21.179 24.7814 22.0337 24.5345C22.8883 24.2874 23.6092 24.0006 24.1963 23.6742C24.7837 23.3477 25.1628 23.0049 25.3337 22.6458V18.5972C24.773 18.9169 24.1448 19.2033 23.449 19.4562C22.7532 19.7093 22.0067 19.9213 21.2093 20.0922C20.4118 20.2631 19.5754 20.3929 18.7003 20.4818C17.8252 20.5707 16.9252 20.6152 16.0003 20.6152C15.0585 20.6152 14.141 20.5686 13.2477 20.4755C12.3545 20.3824 11.5114 20.2503 10.7183 20.0792C9.92521 19.9083 9.18633 19.6985 8.50166 19.4498C7.81699 19.2012 7.20544 18.9169 6.66699 18.5972V22.6665C6.83788 23.0341 7.21355 23.3755 7.79399 23.6908C8.37421 24.0062 9.09166 24.2874 9.94633 24.5345C10.8012 24.7814 11.7534 24.9763 12.803 25.1192C13.8525 25.2618 14.9183 25.3332 16.0003 25.3332Z"
          fill="white"/>
</svg>
