<svg width="32" height="32" viewBox="0 0 32 32" fill="none" xmlns="http://www.w3.org/2000/svg">
<path d="M15.9997 28.6668C14.263 28.6668 12.6241 28.3339 11.083 27.6682C9.5419 27.0024 8.1979 26.0959 7.05101 24.9488C5.9039 23.8019 4.99745 22.4579 4.33167 20.9168C3.6659 19.3757 3.33301 17.7368 3.33301 16.0002C3.33301 14.2497 3.6659 12.6074 4.33167 11.0732C4.99745 9.53894 5.9039 8.19838 7.05101 7.0515C8.1979 5.90438 9.5419 4.99794 11.083 4.33216C12.6241 3.66639 14.263 3.3335 15.9997 3.3335C17.7501 3.3335 19.3925 3.66639 20.9267 4.33216C22.4609 4.99794 23.8015 5.90438 24.9483 7.0515C26.0955 8.19838 27.0019 9.53894 27.6677 11.0732C28.3335 12.6074 28.6663 14.2497 28.6663 16.0002C28.6663 17.7368 28.3335 19.3757 27.6677 20.9168C27.0019 22.4579 26.0955 23.8019 24.9483 24.9488C23.8015 26.0959 22.4609 27.0024 20.9267 27.6682C19.3925 28.3339 17.7501 28.6668 15.9997 28.6668ZM15.9997 26.6385C16.6801 25.7361 17.2528 24.8258 17.7177 23.9078C18.1826 22.9898 18.5612 21.9864 18.8537 20.8975H13.1457C13.4552 22.0206 13.8382 23.0412 14.2947 23.9592C14.7509 24.8772 15.3192 25.7703 15.9997 26.6385ZM13.4177 26.2718C12.9066 25.5385 12.4476 24.7048 12.0407 23.7708C11.6338 22.8366 11.3176 21.8788 11.092 20.8975H6.56901C7.27323 22.2822 8.21767 23.4455 9.40234 24.3875C10.587 25.3293 11.9255 25.9574 13.4177 26.2718ZM18.5817 26.2718C20.0739 25.9574 21.4123 25.3293 22.597 24.3875C23.7817 23.4455 24.7261 22.2822 25.4303 20.8975H20.9073C20.6389 21.8873 20.3012 22.8493 19.8943 23.7835C19.4877 24.7177 19.0501 25.5472 18.5817 26.2718ZM5.73034 18.8975H10.687C10.6032 18.4019 10.5425 17.9161 10.5047 17.4398C10.4671 16.9638 10.4483 16.4839 10.4483 16.0002C10.4483 15.5164 10.4671 15.0365 10.5047 14.5605C10.5425 14.0843 10.6032 13.5984 10.687 13.1028H5.73034C5.60212 13.5557 5.5039 14.0266 5.43567 14.5155C5.36723 15.0044 5.33301 15.4993 5.33301 16.0002C5.33301 16.5011 5.36723 16.9959 5.43567 17.4848C5.5039 17.9737 5.60212 18.4446 5.73034 18.8975ZM12.6867 18.8975H19.3127C19.3962 18.4019 19.4569 17.9204 19.4947 17.4528C19.5322 16.9853 19.551 16.5011 19.551 16.0002C19.551 15.4993 19.5322 15.0151 19.4947 14.5475C19.4569 14.0799 19.3962 13.5984 19.3127 13.1028H12.6867C12.6031 13.5984 12.5425 14.0799 12.5047 14.5475C12.4671 15.0151 12.4483 15.4993 12.4483 16.0002C12.4483 16.5011 12.4671 16.9853 12.5047 17.4528C12.5425 17.9204 12.6031 18.4019 12.6867 18.8975ZM21.3123 18.8975H26.269C26.3972 18.4446 26.4955 17.9737 26.5637 17.4848C26.6321 16.9959 26.6663 16.5011 26.6663 16.0002C26.6663 15.4993 26.6321 15.0044 26.5637 14.5155C26.4955 14.0266 26.3972 13.5557 26.269 13.1028H21.3123C21.3961 13.5984 21.4569 14.0843 21.4947 14.5605C21.5322 15.0365 21.551 15.5164 21.551 16.0002C21.551 16.4839 21.5322 16.9638 21.4947 17.4398C21.4569 17.9161 21.3961 18.4019 21.3123 18.8975ZM20.9073 11.1028H25.4303C24.7177 9.70105 23.7797 8.53772 22.6163 7.61283C21.453 6.68816 20.1081 6.05572 18.5817 5.7155C19.0928 6.4915 19.5475 7.34027 19.9457 8.26183C20.3441 9.18316 20.6647 10.1302 20.9073 11.1028ZM13.1457 11.1028H18.8537C18.5441 9.98816 18.1548 8.96116 17.6857 8.02183C17.2163 7.0825 16.6543 6.19583 15.9997 5.36183C15.345 6.19583 14.783 7.0825 14.3137 8.02183C13.8446 8.96116 13.4552 9.98816 13.1457 11.1028ZM6.56901 11.1028H11.092C11.3347 10.1302 11.6552 9.18316 12.0537 8.26183C12.4519 7.34027 12.9066 6.4915 13.4177 5.7155C11.8826 6.05572 10.5356 6.69039 9.37667 7.6195C8.21756 8.54839 7.28167 9.7095 6.56901 11.1028Z" fill="white"/>
</svg>
