<svg width="32" height="32" viewBox="0 0 32 32" fill="none" xmlns="http://www.w3.org/2000/svg">
    <path d="M9.82099 22.3332H11.8207V15.9998H9.82099V22.3332ZM20.18 22.3332H22.1797V9.33317H20.18V22.3332ZM15.0003 22.3332H17.0003V18.6665H15.0003V22.3332ZM15.0003 15.9998H17.0003V13.3332H15.0003V15.9998ZM7.07733 27.3332C6.40377 27.3332 5.83366 27.0998 5.36699 26.6332C4.90033 26.1665 4.66699 25.5964 4.66699 24.9228V7.07684C4.66699 6.40328 4.90033 5.83317 5.36699 5.3665C5.83366 4.89984 6.40377 4.6665 7.07733 4.6665H24.9233C25.5969 4.6665 26.167 4.89984 26.6337 5.3665C27.1003 5.83317 27.3337 6.40328 27.3337 7.07684V24.9228C27.3337 25.5964 27.1003 26.1665 26.6337 26.6332C26.167 27.0998 25.5969 27.3332 24.9233 27.3332H7.07733ZM7.07733 25.3332H24.9233C25.026 25.3332 25.12 25.2904 25.2053 25.2048C25.2909 25.1195 25.3337 25.0255 25.3337 24.9228V7.07684C25.3337 6.97417 25.2909 6.88017 25.2053 6.79484C25.12 6.70928 25.026 6.6665 24.9233 6.6665H7.07733C6.97466 6.6665 6.88066 6.70928 6.79533 6.79484C6.70977 6.88017 6.66699 6.97417 6.66699 7.07684V24.9228C6.66699 25.0255 6.70977 25.1195 6.79533 25.2048C6.88066 25.2904 6.97466 25.3332 7.07733 25.3332Z"
          fill="white"/>
</svg>
