<svg width="32" height="32" viewBox="0 0 32 32" fill="none" xmlns="http://www.w3.org/2000/svg">
<path d="M16 27.9232C15.4649 27.9232 14.9918 27.7822 14.5807 27.5002C14.1696 27.2179 13.882 26.8478 13.718 26.3898H13.3333C12.788 26.3898 12.3183 26.1928 11.9243 25.7988C11.5303 25.4048 11.3333 24.9352 11.3333 24.3898V20.0155C9.988 19.2002 8.92944 18.1071 8.15767 16.7362C7.38589 15.3651 7 13.8975 7 12.3335C7 9.82416 7.87267 7.69683 9.618 5.9515C11.3633 4.20616 13.4907 3.3335 16 3.3335C18.5093 3.3335 20.6367 4.20616 22.382 5.9515C24.1273 7.69683 25 9.82416 25 12.3335C25 13.9248 24.6141 15.3992 23.8423 16.7565C23.0706 18.1138 22.012 19.2002 20.6667 20.0155V24.3898C20.6667 24.9352 20.4697 25.4048 20.0757 25.7988C19.6817 26.1928 19.212 26.3898 18.6667 26.3898H18.282C18.118 26.8478 17.8304 27.2179 17.4193 27.5002C17.0082 27.7822 16.5351 27.9232 16 27.9232ZM13.3333 24.3898H18.6667V23.1385H13.3333V24.3898ZM13.3333 21.9592H18.6667V20.6668H13.3333V21.9592ZM13.0667 18.6668H15.205V14.7848L12.3487 11.9285L13.4667 10.8105L16 13.3438L18.5333 10.8105L19.6513 11.9285L16.795 14.7848V18.6668H18.9333C20.1333 18.0891 21.1111 17.2391 21.8667 16.1168C22.6222 14.9946 23 13.7335 23 12.3335C23 10.3779 22.3222 8.72239 20.9667 7.36683C19.6111 6.01127 17.9556 5.3335 16 5.3335C14.0444 5.3335 12.3889 6.01127 11.0333 7.36683C9.67778 8.72239 9 10.3779 9 12.3335C9 13.7335 9.37778 14.9946 10.1333 16.1168C10.8889 17.2391 11.8667 18.0891 13.0667 18.6668Z" fill="white"/>
</svg>
