<svg width="32" height="32" viewBox="0 0 32 32" fill="none" xmlns="http://www.w3.org/2000/svg">
<path d="M16.0002 28.6668C14.2635 28.6668 12.6246 28.3339 11.0835 27.6682C9.54239 27.0024 8.19838 26.0959 7.0515 24.9488C5.90438 23.8019 4.99794 22.4579 4.33216 20.9168C3.66639 19.3757 3.3335 17.7368 3.3335 16.0002C3.3335 14.2497 3.66639 12.6074 4.33216 11.0732C4.99794 9.53894 5.90438 8.19838 7.0515 7.0515C8.19838 5.90438 9.54239 4.99794 11.0835 4.33216C12.6246 3.66639 14.2635 3.3335 16.0002 3.3335C17.7506 3.3335 19.3929 3.66639 20.9272 4.33216C22.4614 4.99794 23.8019 5.90438 24.9488 7.0515C26.0959 8.19838 27.0024 9.53894 27.6682 11.0732C28.3339 12.6074 28.6668 14.2497 28.6668 16.0002C28.6668 17.7368 28.3339 19.3757 27.6682 20.9168C27.0024 22.4579 26.0959 23.8019 24.9488 24.9488C23.8019 26.0959 22.4614 27.0024 20.9272 27.6682C19.3929 28.3339 17.7506 28.6668 16.0002 28.6668ZM16.0002 26.6385C16.6806 25.7361 17.2533 24.8258 17.7182 23.9078C18.1831 22.9898 18.5617 21.9864 18.8542 20.8975H13.1462C13.4557 22.0206 13.8387 23.0412 14.2952 23.9592C14.7514 24.8772 15.3197 25.7703 16.0002 26.6385ZM13.4182 26.2718C12.9071 25.5385 12.4481 24.7048 12.0412 23.7708C11.6343 22.8366 11.3181 21.8788 11.0925 20.8975H6.5695C7.27372 22.2822 8.21816 23.4455 9.40283 24.3875C10.5875 25.3293 11.9259 25.9574 13.4182 26.2718ZM18.5822 26.2718C20.0744 25.9574 21.4128 25.3293 22.5975 24.3875C23.7822 23.4455 24.7266 22.2822 25.4308 20.8975H20.9078C20.6394 21.8873 20.3017 22.8493 19.8948 23.7835C19.4882 24.7177 19.0506 25.5472 18.5822 26.2718ZM5.73083 18.8975H10.6875C10.6037 18.4019 10.5429 17.9161 10.5052 17.4398C10.4676 16.9638 10.4488 16.4839 10.4488 16.0002C10.4488 15.5164 10.4676 15.0365 10.5052 14.5605C10.5429 14.0843 10.6037 13.5984 10.6875 13.1028H5.73083C5.60261 13.5557 5.50439 14.0266 5.43616 14.5155C5.36772 15.0044 5.3335 15.4993 5.3335 16.0002C5.3335 16.5011 5.36772 16.9959 5.43616 17.4848C5.50439 17.9737 5.60261 18.4446 5.73083 18.8975ZM12.6872 18.8975H19.3132C19.3967 18.4019 19.4574 17.9204 19.4952 17.4528C19.5327 16.9853 19.5515 16.5011 19.5515 16.0002C19.5515 15.4993 19.5327 15.0151 19.4952 14.5475C19.4574 14.0799 19.3967 13.5984 19.3132 13.1028H12.6872C12.6036 13.5984 12.5429 14.0799 12.5052 14.5475C12.4676 15.0151 12.4488 15.4993 12.4488 16.0002C12.4488 16.5011 12.4676 16.9853 12.5052 17.4528C12.5429 17.9204 12.6036 18.4019 12.6872 18.8975ZM21.3128 18.8975H26.2695C26.3977 18.4446 26.4959 17.9737 26.5642 17.4848C26.6326 16.9959 26.6668 16.5011 26.6668 16.0002C26.6668 15.4993 26.6326 15.0044 26.5642 14.5155C26.4959 14.0266 26.3977 13.5557 26.2695 13.1028H21.3128C21.3966 13.5984 21.4574 14.0843 21.4952 14.5605C21.5327 15.0365 21.5515 15.5164 21.5515 16.0002C21.5515 16.4839 21.5327 16.9638 21.4952 17.4398C21.4574 17.9161 21.3966 18.4019 21.3128 18.8975ZM20.9078 11.1028H25.4308C24.7182 9.70105 23.7802 8.53772 22.6168 7.61283C21.4535 6.68816 20.1086 6.05572 18.5822 5.7155C19.0933 6.4915 19.5479 7.34027 19.9462 8.26183C20.3446 9.18316 20.6652 10.1302 20.9078 11.1028ZM13.1462 11.1028H18.8542C18.5446 9.98816 18.1553 8.96116 17.6862 8.02183C17.2168 7.0825 16.6548 6.19583 16.0002 5.36183C15.3455 6.19583 14.7835 7.0825 14.3142 8.02183C13.8451 8.96116 13.4557 9.98816 13.1462 11.1028ZM6.5695 11.1028H11.0925C11.3352 10.1302 11.6557 9.18316 12.0542 8.26183C12.4524 7.34027 12.9071 6.4915 13.4182 5.7155C11.8831 6.05572 10.5361 6.69039 9.37716 7.6195C8.21805 8.54839 7.28216 9.7095 6.5695 11.1028Z" fill="white"/>
</svg>
