<svg width="680" height="399" viewBox="0 0 680 399" fill="none" xmlns="http://www.w3.org/2000/svg">
    <g clip-path="url(#clip0_25_2)">
        <path d="M513.221 140.559L590.408 185.041C596.109 188.331 596.109 196.544 590.408 199.833L513.221 244.316C507.212 247.777 499.803 247.777 493.794 244.316L416.607 199.833C410.906 196.544 410.906 188.331 416.607 185.041L493.794 140.559C499.803 137.097 507.212 137.097 513.221 140.559Z"
              fill="white"/>
        <path d="M503.508 137.959C506.861 137.959 510.214 138.828 513.221 140.559L590.409 185.042C596.11 188.331 596.11 196.544 590.409 199.833L513.221 244.316C510.214 246.047 506.861 246.915 503.508 246.915C500.155 246.915 496.802 246.047 493.795 244.316L416.608 199.833C410.906 196.544 410.906 188.331 416.608 185.042L493.795 140.559C496.802 138.828 500.155 137.959 503.508 137.959ZM503.508 136.043C499.765 136.043 496.073 137.033 492.835 138.898L415.648 183.381C412.365 185.272 410.407 188.657 410.407 192.437C410.407 196.218 412.365 199.603 415.648 201.494L492.835 245.977C496.073 247.841 499.765 248.831 503.508 248.831C507.251 248.831 510.943 247.841 514.181 245.977L591.368 201.494C594.651 199.603 596.609 196.218 596.609 192.437C596.609 188.657 594.651 185.272 591.368 183.381L514.181 138.898C510.943 137.033 507.251 136.043 503.508 136.043Z"
              fill="#232323"/>
        <path d="M533.812 192.437C533.812 193.395 533.338 194.347 532.391 194.896L506.739 209.681C504.743 210.831 502.279 210.831 500.283 209.681L474.63 194.896C473.683 194.353 473.21 193.395 473.21 192.444V168.954H533.818V192.437H533.812Z"
              fill="white"/>
        <path d="M533.812 168.954V192.437C533.812 193.395 533.339 194.347 532.392 194.896L506.739 209.681C505.741 210.256 504.628 210.543 503.508 210.543C502.388 210.543 501.281 210.256 500.277 209.681L474.624 194.896C473.677 194.353 473.204 193.395 473.204 192.444V168.954H533.812ZM535.732 167.038H471.284V192.444C471.284 194.162 472.18 195.701 473.665 196.557L499.317 211.342C500.59 212.076 502.036 212.459 503.508 212.459C504.98 212.459 506.426 212.07 507.699 211.342L533.351 196.557C534.842 195.694 535.732 194.155 535.732 192.437V167.038Z"
              fill="#232323"/>
        <path d="M473.197 168.954H499.624V209.298L474.618 194.896C473.677 194.347 473.204 193.395 473.197 192.437V168.954Z"
              fill="#ECECEC"/>
        <path d="M503.502 210.543C503.112 210.543 502.728 210.511 502.344 210.435V168.954H503.483L503.502 210.543Z"
              fill="#ECECEC"/>
        <path d="M506.733 150.324L532.386 165.109C534.28 166.201 534.28 168.935 532.386 170.027L506.733 184.812C504.737 185.962 502.273 185.962 500.277 184.812L474.625 170.027C472.731 168.935 472.731 166.201 474.625 165.109L500.277 150.324C502.273 149.175 504.737 149.175 506.733 150.324Z"
              fill="white"/>
        <path d="M503.508 149.462C504.621 149.462 505.735 149.749 506.739 150.324L532.392 165.109C534.286 166.201 534.286 168.935 532.392 170.027L506.739 184.812C505.741 185.387 504.628 185.674 503.508 185.674C502.388 185.674 501.281 185.387 500.277 184.812L474.624 170.027C472.73 168.935 472.73 166.201 474.624 165.109L500.277 150.324C501.275 149.749 502.388 149.462 503.508 149.462ZM503.508 147.546C502.043 147.546 500.59 147.935 499.317 148.664L473.665 163.449C472.174 164.311 471.284 165.85 471.284 167.568C471.284 169.286 472.174 170.825 473.665 171.687L499.317 186.472C500.59 187.207 502.036 187.59 503.508 187.59C504.98 187.59 506.426 187.201 507.699 186.472L533.351 171.687C534.842 170.825 535.732 169.286 535.732 167.568C535.732 165.85 534.842 164.311 533.351 163.449L507.699 148.664C506.426 147.929 504.98 147.546 503.508 147.546Z"
              fill="#232323"/>
        <path d="M504.954 163.678L508.691 165.83C510.028 166.597 510.028 168.525 508.691 169.292L504.954 171.444C504.058 171.961 502.958 171.961 502.062 171.444L498.325 169.292C496.988 168.525 496.988 166.597 498.325 165.83L502.062 163.678C502.958 163.161 504.058 163.161 504.954 163.678Z"
              fill="#232323"/>
        <path d="M503.508 163.295C504.007 163.295 504.506 163.423 504.954 163.684L508.691 165.837C510.028 166.603 510.028 168.532 508.691 169.298L504.954 171.451C504.506 171.706 504.007 171.84 503.508 171.84C503.009 171.84 502.51 171.712 502.062 171.451L498.325 169.298C496.988 168.532 496.988 166.603 498.325 165.837L502.062 163.684C502.51 163.429 503.009 163.295 503.508 163.295ZM503.508 161.379C502.663 161.379 501.832 161.602 501.102 162.024L497.365 164.176C496.137 164.885 495.407 166.15 495.407 167.568C495.407 168.985 496.143 170.25 497.365 170.959L501.102 173.111C501.832 173.533 502.663 173.756 503.508 173.756C504.353 173.756 505.184 173.533 505.914 173.111L509.651 170.959C510.879 170.25 511.609 168.985 511.609 167.568C511.609 166.15 510.873 164.885 509.651 164.176L505.914 162.024C505.184 161.602 504.353 161.379 503.508 161.379Z"
              fill="white"/>
        <path d="M506.042 167.261H500.923V130.295C500.923 122.663 496.809 115.548 490.186 111.729C486.558 109.641 482.232 109.641 478.604 111.729C474.976 113.818 472.814 117.56 472.814 121.743V129.126C472.814 137.161 468.654 144.359 461.68 148.376C454.705 152.393 446.381 152.393 439.412 148.376L387.941 118.716C377.192 112.521 363.831 112.521 353.075 118.716L288.32 156.033L285.761 151.607L350.515 114.29C362.846 107.182 378.171 107.182 390.501 114.29L441.972 143.95C447.34 147.041 453.752 147.041 459.12 143.95C464.489 140.859 467.695 135.315 467.695 129.126V121.743C467.695 115.715 470.817 110.318 476.045 107.31C481.273 104.295 487.518 104.295 492.745 107.31C500.942 112.036 506.036 120.843 506.036 130.295V167.261H506.042Z"
              fill="#232323"/>
        <path d="M389.496 230.764C389.496 235.56 387.123 240.35 382.368 243.09L253.704 317.232C243.683 323.006 231.34 323.006 221.326 317.232L92.6613 243.09C87.9071 240.35 85.5332 235.56 85.5332 230.764V156.04H389.496V230.764Z"
              fill="white"/>
        <path d="M389.496 156.04V230.764C389.496 235.56 387.122 240.35 382.368 243.09L253.703 317.232C248.693 320.119 243.107 321.562 237.514 321.562C231.922 321.562 226.336 320.119 221.326 317.232L92.661 243.09C87.9068 240.35 85.5329 235.56 85.5329 230.764V156.04H389.496ZM391.416 154.124H83.6133V230.764C83.6133 236.601 86.6399 241.832 91.7012 244.75L220.366 318.893C225.575 321.895 231.506 323.478 237.514 323.478C243.523 323.478 249.454 321.895 254.663 318.893L383.328 244.75C388.396 241.832 391.416 236.601 391.416 230.764V154.124Z"
              fill="#232323"/>
        <path d="M85.5332 154.118H230.495V320.79C227.322 320.094 224.225 318.906 221.326 317.232L92.6613 243.084C87.9071 240.35 85.5332 235.554 85.5332 230.757V154.118Z"
              fill="#ECECEC"/>
        <path d="M237.515 154.118V321.562C236.472 321.562 235.429 321.511 234.393 321.409V154.118H237.515Z"
              fill="#ECECEC"/>
        <path d="M253.703 67.6617L382.368 141.804C391.876 147.284 391.876 160.977 382.368 166.457L253.703 240.599C243.682 246.372 231.339 246.372 221.325 240.599L92.6606 166.457C83.1522 160.977 83.1522 147.284 92.6606 141.804L221.325 67.6617C231.346 61.8882 243.689 61.8882 253.703 67.6617Z"
              fill="white"/>
        <path d="M237.514 63.3315C243.107 63.3315 248.693 64.7749 253.703 67.6617L382.368 141.804C391.876 147.284 391.876 160.977 382.368 166.457L253.703 240.599C248.693 243.486 243.107 244.929 237.514 244.929C231.922 244.929 226.336 243.486 221.326 240.599L92.661 166.457C83.1526 160.977 83.1526 147.284 92.661 141.804L221.326 67.6617C226.336 64.7749 231.922 63.3315 237.514 63.3315ZM237.514 61.4155C231.5 61.4155 225.575 62.9994 220.366 66.0011L91.7012 140.144C86.6335 143.062 83.6133 148.293 83.6133 154.13C83.6133 159.968 86.6399 165.198 91.7012 168.117L220.366 242.259C225.575 245.261 231.506 246.845 237.514 246.845C243.523 246.845 249.454 245.261 254.663 242.259L383.328 168.117C388.396 165.198 391.416 159.968 391.416 154.13C391.416 148.293 388.389 143.062 383.328 140.144L254.663 66.0011C249.454 62.9994 243.523 61.4155 237.514 61.4155Z"
              fill="#232323"/>
        <path d="M235.173 91.9694L176.068 126.029C174.11 127.16 174.11 129.976 176.068 131.107L201.925 146.007C203.774 147.073 206.046 147.073 207.895 146.007L267 111.947C268.958 110.816 268.958 108 267 106.869L241.143 91.9694C239.294 90.9028 237.022 90.9028 235.173 91.9694Z"
              fill="#232323"/>
        <path d="M238.155 91.1709C239.185 91.1709 240.215 91.4391 241.136 91.9692L266.993 106.869C268.951 108 268.951 110.816 266.993 111.947L207.889 146.007C206.967 146.537 205.937 146.805 204.907 146.805C203.877 146.805 202.847 146.537 201.925 146.007L176.068 131.107C174.11 129.976 174.11 127.16 176.068 126.029L235.173 91.9692C236.094 91.4391 237.124 91.1709 238.155 91.1709ZM238.155 89.2549C236.772 89.2549 235.409 89.6189 234.213 90.3087L175.108 124.369C173.585 125.244 172.677 126.815 172.677 128.565C172.677 130.315 173.585 131.886 175.108 132.761L200.965 147.661C202.162 148.35 203.525 148.714 204.907 148.714C206.289 148.714 207.652 148.35 208.849 147.661L267.953 113.601C269.476 112.726 270.385 111.155 270.385 109.405C270.385 107.655 269.476 106.084 267.953 105.209L242.096 90.3087C240.9 89.6189 239.537 89.2549 238.155 89.2549Z"
              fill="#232323"/>
        <path d="M325.081 142.149L295.347 132.25C294.438 131.949 293.325 131.949 292.416 132.25L262.713 142.13C261.811 142.43 261.248 142.985 261.248 143.592L261.235 163.359C261.235 163.959 261.792 164.521 262.701 164.821L292.403 174.733C293.312 175.034 294.425 175.04 295.334 174.733L325.081 164.86C325.99 164.56 326.547 164.004 326.547 163.397V143.605C326.547 142.998 325.99 142.443 325.081 142.142V142.149ZM285.864 168.66L275.338 165.147L282.409 165.205L285.864 168.66ZM288.116 164.151L312.777 155.963L319.611 162.784L294.944 170.972L288.116 164.151ZM282.421 142.053L274.852 141.996L286.12 138.247L282.421 142.053ZM287.054 146.677L307.991 153.651L287.048 160.606V146.677H287.054ZM317.224 153.645L320.686 150.087V157.1L317.224 153.645ZM319.649 144.244L312.745 151.339L288.091 143.126L294.988 136.03L319.649 144.237V144.244ZM267.103 145.31L281.199 145.419V161.82L267.097 161.705V145.31H267.103Z"
              fill="#A7A7A7"/>
        <path d="M293.875 132.026C294.38 132.026 294.886 132.103 295.34 132.249L325.075 142.149C325.983 142.449 326.54 143.011 326.54 143.611V163.403C326.54 164.01 325.977 164.566 325.068 164.866L295.321 174.74C294.867 174.887 294.368 174.963 293.862 174.963C293.357 174.963 292.845 174.887 292.39 174.733L262.688 164.821C261.785 164.521 261.222 163.959 261.222 163.359L261.235 143.592C261.235 142.992 261.792 142.43 262.7 142.13L292.403 132.249C292.857 132.096 293.363 132.026 293.868 132.026M312.732 151.333L319.636 144.237L294.975 136.03L288.078 143.126L312.732 151.339M282.408 142.053L286.107 138.246L274.839 141.995L282.408 142.053ZM281.173 161.82V145.419L267.084 145.31V161.705L281.173 161.82ZM287.028 160.612L307.971 153.657L287.035 146.683V160.612M320.666 157.106V150.094L317.204 153.651L320.666 157.106ZM294.924 170.978L319.591 162.79L312.757 155.969L288.097 164.157L294.924 170.978ZM285.851 168.666L282.396 165.211L275.325 165.153L285.851 168.666ZM293.868 130.116C293.152 130.116 292.435 130.231 291.795 130.442L262.093 140.322C260.378 140.891 259.316 142.149 259.316 143.598L259.303 163.365C259.303 164.815 260.365 166.073 262.073 166.648L291.776 176.56C292.416 176.771 293.133 176.886 293.856 176.886C294.579 176.886 295.283 176.777 295.922 176.56L325.67 166.686C327.385 166.118 328.453 164.86 328.453 163.403V143.611C328.453 142.155 327.391 140.903 325.676 140.329L295.942 130.429C295.302 130.218 294.585 130.104 293.868 130.104V130.116ZM291.584 142.276L295.513 138.234L316.129 145.099L312.194 149.142L291.584 142.276ZM269.003 159.808V147.245L279.267 147.328V159.897L269.003 159.814V159.808ZM288.961 157.956V149.34L301.912 153.651L288.961 157.949V157.956ZM291.661 164.994L312.252 158.154L316.046 161.947L295.455 168.781L291.661 164.987V164.994Z"
              fill="#232323"/>
        <path d="M194.361 139.619L193.331 138.004L199.423 134.14C201.765 132.652 203.172 130.11 203.185 127.338L203.204 122.644C203.211 120.862 204.145 119.265 205.7 118.378C207.248 117.49 209.097 117.503 210.646 118.403L224.569 126.508C225.395 126.987 226.367 127.051 227.244 126.693C228.095 126.342 228.729 125.646 228.991 124.771L229.893 104.672L229.919 104.57C230.315 103.075 231.365 101.881 232.792 101.287C234.219 100.693 235.812 100.795 237.149 101.562L240.752 103.669C243.401 105.215 246.658 105.151 249.243 103.49L253.018 101.063L254.055 102.673L250.279 105.1C247.08 107.156 243.062 107.239 239.779 105.323L236.183 103.222C235.37 102.756 234.398 102.698 233.521 103.062C232.677 103.414 232.05 104.11 231.787 104.978L230.885 125.077L230.859 125.179C230.456 126.68 229.4 127.881 227.967 128.468C226.527 129.062 224.934 128.947 223.59 128.168L209.667 120.064C208.72 119.514 207.587 119.508 206.64 120.051C205.693 120.594 205.117 121.564 205.117 122.657L205.098 127.351C205.079 130.774 203.345 133.923 200.446 135.756L194.355 139.619H194.361Z"
              fill="#99AE7F"/>
        <path d="M588.989 345.716C588.989 350.513 586.615 355.303 581.861 358.043L453.196 432.185C443.175 437.959 430.832 437.959 420.818 432.185L292.154 358.043C287.399 355.303 285.025 350.513 285.025 345.716V331.065H588.989V345.716Z"
              fill="white"/>
        <path d="M588.988 331.066V345.717C588.988 350.513 586.614 355.303 581.86 358.043L453.195 432.185C448.185 435.072 442.599 436.516 437.007 436.516C431.414 436.516 425.828 435.072 420.818 432.185L292.153 358.043C287.399 355.303 285.025 350.513 285.025 345.717V331.066H588.988ZM590.908 329.15H283.105V345.717C283.105 351.554 286.132 356.785 291.193 359.704L419.858 433.846C425.067 436.848 430.998 438.432 437.007 438.432C443.015 438.432 448.947 436.848 454.155 433.846L582.82 359.704C587.888 356.785 590.908 351.554 590.908 345.717V329.15Z"
              fill="#232323"/>
        <path d="M285.025 329.143H429.988V435.742C426.814 435.046 423.717 433.858 420.818 432.185L292.154 358.036C287.399 355.303 285.025 350.506 285.025 345.71V329.143Z"
              fill="#ECECEC"/>
        <path d="M437.007 329.143V436.515C435.964 436.515 434.921 436.464 433.885 436.362V329.143H437.007Z"
              fill="#ECECEC"/>
        <path d="M453.195 243.103L581.86 317.245C591.368 322.725 591.368 336.418 581.86 341.897L453.195 416.04C443.175 421.813 430.832 421.813 420.818 416.04L292.153 341.897C282.644 336.418 282.644 322.725 292.153 317.245L420.818 243.103C430.838 237.329 443.181 237.329 453.195 243.103Z"
              fill="white"/>
        <path d="M437.007 238.772C442.599 238.772 448.185 240.216 453.195 243.103L581.86 317.245C591.369 322.725 591.369 336.418 581.86 341.897L453.195 416.04C448.185 418.927 442.599 420.37 437.007 420.37C431.414 420.37 425.828 418.927 420.818 416.04L292.153 341.897C282.645 336.418 282.645 322.725 292.153 317.245L420.818 243.103C425.828 240.216 431.414 238.772 437.007 238.772ZM437.007 236.856C430.992 236.856 425.067 238.44 419.858 241.442L291.193 315.584C286.126 318.503 283.105 323.734 283.105 329.571C283.105 335.409 286.132 340.639 291.193 343.558L419.858 417.7C425.067 420.702 430.998 422.286 437.007 422.286C443.015 422.286 448.947 420.702 454.155 417.7L582.82 343.558C587.888 340.639 590.908 335.409 590.908 329.571C590.908 323.734 587.881 318.503 582.82 315.584L454.155 241.442C448.947 238.44 443.015 236.856 437.007 236.856Z"
              fill="#232323"/>
        <path d="M437.007 410.158C433.123 410.158 429.297 409.136 425.938 407.194L297.273 333.052C295.526 332.043 295.264 330.44 295.264 329.578C295.264 328.716 295.526 327.112 297.273 326.103L425.938 251.961C429.297 250.026 433.13 248.998 437.007 248.998C440.885 248.998 444.718 250.019 448.077 251.961L576.742 326.103C578.489 327.112 578.751 328.716 578.751 329.578C578.751 330.44 578.489 332.043 576.742 333.052L448.077 407.194C444.718 409.13 440.885 410.158 437.007 410.158Z"
              fill="#99AE7F"/>
        <path d="M437.007 248.991C440.891 248.991 444.718 250.013 448.077 251.955L576.742 326.097C578.488 327.106 578.751 328.709 578.751 329.571C578.751 330.434 578.488 332.037 576.742 333.046L448.077 407.188C444.718 409.123 440.885 410.152 437.007 410.152C433.129 410.152 429.297 409.13 425.937 407.188L297.273 333.046C295.526 332.037 295.263 330.434 295.263 329.571C295.263 328.709 295.526 327.106 297.273 326.097L425.937 251.955C429.297 250.019 433.129 248.991 437.007 248.991ZM437.007 247.075C432.79 247.075 428.631 248.186 424.978 250.294L296.313 324.436C294.425 325.522 293.344 327.394 293.344 329.571C293.344 331.749 294.425 333.62 296.313 334.706L424.978 408.849C428.631 410.956 432.79 412.067 437.007 412.067C441.224 412.067 445.383 410.956 449.037 408.849L577.701 334.706C579.589 333.62 580.67 331.743 580.67 329.571C580.67 327.4 579.589 325.522 577.701 324.436L449.037 250.294C445.383 248.186 441.224 247.075 437.007 247.075Z"
              fill="#232323"/>
        <path d="M394.999 306.618L392.299 305.066C390.738 304.165 389.695 303.265 389.164 302.371C388.639 301.477 388.524 300.557 388.825 299.605C389.125 298.654 389.765 297.651 390.751 296.591L392.229 294.962C392.766 294.356 393.112 293.794 393.272 293.27C393.432 292.746 393.387 292.248 393.144 291.769C392.901 291.296 392.433 290.862 391.749 290.466L391.621 290.39C390.552 289.77 389.336 289.489 387.974 289.546C386.617 289.604 385.305 289.994 384.038 290.722C382.771 291.45 382.132 292.21 382.048 293.034C381.965 293.857 382.554 294.637 383.814 295.365L384.39 295.697L380.282 298.066L379.77 297.772C378.145 296.834 377.128 295.831 376.718 294.758C376.309 293.685 376.43 292.612 377.083 291.545C377.736 290.479 378.83 289.502 380.372 288.614C381.914 287.726 383.597 287.094 385.427 286.717C387.257 286.34 389.061 286.251 390.84 286.449C392.619 286.647 394.225 287.158 395.658 287.988L395.978 288.173C397.412 288.997 398.333 289.872 398.743 290.786C399.152 291.699 399.165 292.625 398.794 293.57C398.423 294.515 397.796 295.473 396.919 296.444L395.505 297.996C394.865 298.686 394.449 299.273 394.27 299.765C394.091 300.25 394.097 300.672 394.289 301.017C394.481 301.362 394.859 301.694 395.415 302.013L395.543 302.09L407.643 295.116L411.303 297.223L394.999 306.618Z"
              fill="#232323"/>
        <path d="M422.924 291.047C421.234 292.024 419.436 292.714 417.53 293.116C415.623 293.525 413.742 293.615 411.88 293.391C410.018 293.167 408.316 292.612 406.773 291.724L406.198 291.392L410.305 289.023L410.753 289.284C411.95 289.974 413.326 290.287 414.881 290.223C416.435 290.153 417.894 289.725 419.264 288.94C420.652 288.141 421.394 287.33 421.49 286.506C421.586 285.689 421.132 284.986 420.121 284.405L419.801 284.22C419.117 283.824 418.387 283.6 417.619 283.556C416.851 283.505 416.071 283.588 415.29 283.805C414.509 284.022 413.754 284.341 413.025 284.756L408.533 287.343L404.035 284.75L407.432 278.351L406.921 278.057L395.557 284.603L391.896 282.495L407.816 273.324L413.281 276.473L410.107 282.451L410.619 282.745L411.809 282.061C412.814 281.48 413.998 281.033 415.354 280.72C416.711 280.407 418.125 280.311 419.59 280.445C421.055 280.573 422.463 281.026 423.813 281.806L424.197 282.029C425.656 282.866 426.571 283.805 426.942 284.833C427.32 285.861 427.16 286.915 426.481 287.988C425.797 289.061 424.613 290.083 422.917 291.06L422.924 291.047Z"
              fill="#232323"/>
        <path d="M437.493 282.649C436.617 283.153 435.599 283.415 434.441 283.428C433.283 283.44 432.259 283.185 431.357 282.668C430.455 282.15 430.019 281.556 430.039 280.892C430.058 280.228 430.506 279.64 431.382 279.136C432.259 278.631 433.238 278.395 434.383 278.389C435.529 278.389 436.553 278.638 437.448 279.155C438.344 279.672 438.792 280.26 438.779 280.924C438.766 281.582 438.338 282.163 437.48 282.655L437.493 282.649Z"
              fill="#232323"/>
        <path d="M453.669 272.813L449.107 270.182L438.069 276.543L433.315 273.803L427.908 261.739L435.292 257.485L449.555 265.705L453.279 263.559L456.939 265.667L453.215 267.813L457.777 270.444L453.669 272.813ZM438.319 272.181L445.441 268.074L433.814 261.375L433.238 261.707L437.807 271.887L438.319 272.181Z"
              fill="#232323"/>
        <path d="M527.786 342.351L511.501 351.733L445.006 313.413L461.291 304.031L527.786 342.351Z" fill="#99AE7F"/>
        <path d="M461.29 304.031L527.785 342.351L511.5 351.733L445.005 313.413L461.29 304.031ZM461.29 301.821L460.33 302.377L444.045 311.759L441.166 313.419L444.045 315.08L510.541 353.4L511.5 353.955L512.46 353.4L528.745 344.018L531.624 342.357L528.745 340.697L462.25 302.377L461.29 301.821Z"
              fill="#232323"/>
        <path d="M503.279 356.478L486.994 365.86L435.414 336.137L451.699 326.755L503.279 356.478Z" fill="#232323"/>
        <path d="M451.698 326.755L503.278 356.478L486.993 365.86L435.413 336.137L451.698 326.755ZM451.698 324.545L450.738 325.101L434.454 334.483L431.574 336.143L434.454 337.804L486.033 367.527L486.993 368.083L487.953 367.527L504.238 358.145L507.117 356.484L504.238 354.824L452.658 325.101L451.698 324.545Z"
              fill="#232323"/>
        <path d="M477.575 371.296L461.291 380.677L425.17 359.863L441.455 350.481L477.575 371.296Z" fill="#232323"/>
        <path d="M441.454 350.481L477.575 371.295L461.29 380.677L425.169 359.863L441.454 350.481ZM441.454 348.271L440.494 348.827L424.209 358.209L421.33 359.87L424.209 361.53L460.33 382.344L461.29 382.9L462.25 382.344L478.534 372.962L481.414 371.302L478.534 369.641L442.414 348.827L441.454 348.271Z"
              fill="#232323"/>
        <path d="M453.048 385.422L436.764 394.804L370.269 356.485L386.553 347.103L453.048 385.422Z" fill="#232323"/>
        <path d="M386.553 347.102L453.048 385.422L436.763 394.804L370.268 356.484L386.553 347.102ZM386.553 344.893L385.593 345.448L369.308 354.83L366.429 356.491L369.308 358.151L435.803 396.471L436.763 397.027L437.723 396.471L454.008 387.089L456.887 385.429L454.008 383.768L387.512 345.448L386.553 344.893Z"
              fill="#232323"/>
    </g>
    <defs>
        <clipPath id="clip0_25_2">
            <rect width="680" height="399" fill="white"/>
        </clipPath>
    </defs>
</svg>
