<svg width="32" height="32" viewBox="0 0 32 32" fill="none" xmlns="http://www.w3.org/2000/svg">
    <path d="M14.4284 28.6668C13.7548 28.6668 13.118 28.525 12.518 28.2412C11.918 27.9574 11.4164 27.5497 11.013 27.0182L4.2207 18.2205L4.71304 17.6952C5.04637 17.3396 5.44504 17.126 5.90904 17.0542C6.37304 16.9822 6.80759 17.0702 7.2127 17.3182L10.4617 19.0618V8.51318C10.4617 8.22985 10.5576 7.99229 10.7494 7.80052C10.9409 7.60896 11.1785 7.51318 11.462 7.51318C11.7456 7.51318 11.9865 7.60896 12.1847 7.80052C12.3829 7.99229 12.482 8.22985 12.482 8.51318V22.5925L8.47937 20.4128L12.6384 25.8335C12.8573 26.1086 13.1239 26.3163 13.4384 26.4565C13.753 26.5967 14.083 26.6668 14.4284 26.6668H20.987C21.823 26.6668 22.5343 26.3758 23.1207 25.7938C23.7069 25.2116 24 24.5026 24 23.6668V18.6412C24 18.1834 23.8453 17.7997 23.5357 17.4902C23.2259 17.1806 22.8423 17.0258 22.3847 17.0258H15.6617V15.0258H22.3847C23.3889 15.0258 24.2425 15.3773 24.9454 16.0802C25.6485 16.7833 26 17.637 26 18.6412V23.6658C26 25.0476 25.5091 26.2266 24.5274 27.2028C23.5458 28.1788 22.3657 28.6668 20.987 28.6668H14.4284ZM6.27204 11.5132C6.0087 11.067 5.80781 10.5898 5.66937 10.0818C5.53093 9.57385 5.4617 9.05096 5.4617 8.51318C5.4617 6.84807 6.04548 5.43185 7.21304 4.26452C8.38037 3.09696 9.79659 2.51318 11.4617 2.51318C13.1266 2.51318 14.5428 3.09696 15.7104 4.26452C16.8777 5.43185 17.4614 6.84752 17.4614 8.51152C17.4614 9.05263 17.3921 9.57663 17.2537 10.0835C17.1153 10.5904 16.9145 11.067 16.6514 11.5132L14.9284 10.5132C15.1061 10.2021 15.2395 9.88541 15.3284 9.56318C15.4173 9.24096 15.4617 8.89096 15.4617 8.51318C15.4617 7.40207 15.0728 6.45763 14.295 5.67985C13.5173 4.90207 12.5728 4.51318 11.4617 4.51318C10.3506 4.51318 9.40615 4.90207 8.62837 5.67985C7.85059 6.45763 7.4617 7.40207 7.4617 8.51318C7.4617 8.89096 7.50615 9.24096 7.59504 9.56318C7.68393 9.88541 7.81726 10.2021 7.99504 10.5132L6.27204 11.5132Z"
          fill="white"/>
</svg>
