<svg width="32" height="32" viewBox="0 0 32 32" fill="none" xmlns="http://www.w3.org/2000/svg">
    <path d="M6 27.3332V21.3048C6 20.6417 6.236 20.0747 6.708 19.6038C7.18 19.1327 7.74744 18.8972 8.41033 18.8972H23.5897C24.2526 18.8972 24.82 19.1332 25.292 19.6052C25.764 20.0772 26 20.6446 26 21.3075V27.3332H6ZM12.1923 17.0512C10.4792 17.0512 9.01889 16.4474 7.81133 15.2398C6.60378 14.0323 6 12.5719 6 10.8588C6 9.14573 6.60378 7.68539 7.81133 6.47784C9.01889 5.27028 10.4792 4.6665 12.1923 4.6665H19.8077C21.5208 4.6665 22.9811 5.27028 24.1887 6.47784C25.3962 7.68539 26 9.14573 26 10.8588C26 12.5719 25.3962 14.0323 24.1887 15.2398C22.9811 16.4474 21.5208 17.0512 19.8077 17.0512H12.1923ZM8 25.3332H24V21.3075C24 21.1879 23.9616 21.0896 23.8847 21.0125C23.8078 20.9356 23.7094 20.8972 23.5897 20.8972H8.41033C8.29056 20.8972 8.19222 20.9356 8.11533 21.0125C8.03844 21.0896 8 21.1879 8 21.3075V25.3332ZM12.1923 15.0512H19.8077C20.9786 15.0512 21.97 14.6452 22.782 13.8332C23.594 13.0212 24 12.0297 24 10.8588C24 9.68795 23.594 8.6965 22.782 7.8845C21.97 7.0725 20.9786 6.6665 19.8077 6.6665H12.1923C11.0214 6.6665 10.03 7.0725 9.218 7.8845C8.406 8.6965 8 9.68795 8 10.8588C8 12.0297 8.406 13.0212 9.218 13.8332C10.03 14.6452 11.0214 15.0512 12.1923 15.0512ZM12.192 12.0125C12.5187 12.0125 12.7927 11.9021 13.014 11.6812C13.2353 11.4601 13.346 11.1861 13.346 10.8592C13.346 10.5325 13.2356 10.2585 13.0147 10.0372C12.7936 9.81561 12.5196 9.70484 12.1927 9.70484C11.866 9.70484 11.592 9.81539 11.3707 10.0365C11.1491 10.2576 11.0383 10.5316 11.0383 10.8585C11.0383 11.1852 11.1489 11.4592 11.37 11.6805C11.5911 11.9018 11.8651 12.0125 12.192 12.0125ZM19.8073 12.0125C20.134 12.0125 20.408 11.9021 20.6293 11.6812C20.8509 11.4601 20.9617 11.1861 20.9617 10.8592C20.9617 10.5325 20.8511 10.2585 20.63 10.0372C20.4089 9.81561 20.1349 9.70484 19.808 9.70484C19.4813 9.70484 19.2073 9.81539 18.986 10.0365C18.7647 10.2576 18.654 10.5316 18.654 10.8585C18.654 11.1852 18.7644 11.4592 18.9853 11.6805C19.2064 11.9018 19.4804 12.0125 19.8073 12.0125Z"
          fill="white"/>
</svg>
