<svg width="32" height="32" viewBox="0 0 32 32" fill="none" xmlns="http://www.w3.org/2000/svg">
    <path d="M4.66699 18.4102V16.4102C6.28588 16.4102 7.80599 16.1021 9.22732 15.4858C10.6487 14.8696 11.8931 14.0277 12.9607 12.9602C14.0282 11.8926 14.8701 10.6461 15.4863 9.2205C16.1025 7.79495 16.4107 6.27695 16.4107 4.6665H18.4107C18.4107 6.5605 18.0508 8.34295 17.331 10.0138C16.6114 11.6849 15.6299 13.1423 14.3863 14.3858C13.1428 15.6294 11.6877 16.6109 10.021 17.3305C8.35433 18.0503 6.56966 18.4102 4.66699 18.4102ZM4.66699 13.0768V11.0768C6.44055 11.0768 7.95233 10.4518 9.20233 9.20184C10.4523 7.95184 11.0773 6.44006 11.0773 4.6665H13.0773C13.0773 7.00495 12.2602 8.99128 10.626 10.6255C8.99177 12.2597 7.00544 13.0768 4.66699 13.0768ZM4.66699 7.7435V4.6665H7.74399C7.74399 5.52117 7.44477 6.24762 6.84633 6.84584C6.2481 7.44428 5.52166 7.7435 4.66699 7.7435ZM13.59 27.3332C13.59 25.4305 13.9499 23.6458 14.6697 21.9792C15.3892 20.3125 16.3708 18.8574 17.6143 17.6138C18.8579 16.3703 20.3141 15.3887 21.983 14.6692C23.6519 13.9494 25.4354 13.5895 27.3337 13.5895V15.5895C25.7234 15.5895 24.2054 15.8976 22.7797 16.5138C21.3541 17.1301 20.1075 17.9719 19.04 19.0395C17.9724 20.1071 17.1305 21.3515 16.5143 22.7728C15.8981 24.1942 15.59 25.7143 15.59 27.3332H13.59ZM18.9233 27.3332C18.9233 24.9947 19.7404 23.0084 21.3747 21.3742C23.0089 19.7399 24.9952 18.9228 27.3337 18.9228V20.9228C25.5601 20.9228 24.0483 21.5478 22.7983 22.7978C21.5483 24.0478 20.9233 25.5596 20.9233 27.3332H18.9233ZM24.2567 27.3332C24.2567 26.4785 24.5559 25.7521 25.1543 25.1538C25.7525 24.5554 26.479 24.2562 27.3337 24.2562V27.3332H24.2567Z"
          fill="white"/>
</svg>
