<svg width="32" height="32" viewBox="0 0 32 32" fill="none" xmlns="http://www.w3.org/2000/svg">
    <path d="M15.9957 28.6668C14.2617 28.6668 12.6247 28.3346 11.0847 27.6702C9.5449 27.0057 8.20023 26.0987 7.05067 24.9492C5.90112 23.7996 4.99412 22.4549 4.32967 20.9152C3.66523 19.3752 3.33301 17.7382 3.33301 16.0042C3.33301 14.2491 3.6659 12.6049 4.33167 11.0718C4.99745 9.5385 5.9039 8.19838 7.05101 7.0515C8.1979 5.90438 9.54234 4.99794 11.0843 4.33216C12.6263 3.66639 14.2635 3.3335 15.9957 3.3335C17.7488 3.3335 19.3925 3.66639 20.9267 4.33216C22.4609 4.99794 23.8015 5.90438 24.9483 7.0515C26.0955 8.19838 27.0019 9.5385 27.6677 11.0718C28.3335 12.6049 28.6663 14.2491 28.6663 16.0042C28.6663 17.7382 28.3335 19.3757 27.6677 20.9168C27.0019 22.4579 26.0955 23.8019 24.9483 24.9488C23.8015 26.0959 22.4613 27.0024 20.928 27.6682C19.3949 28.3339 17.7508 28.6668 15.9957 28.6668ZM15.9997 21.6668C17.2817 21.6668 18.5368 21.8506 19.765 22.2182C20.9932 22.5857 22.1416 23.1233 23.21 23.8308C24.3176 22.8173 25.1706 21.6344 25.769 20.2822C26.3672 18.9299 26.6663 17.5026 26.6663 16.0002C26.6663 13.0224 25.633 10.5002 23.5663 8.4335C21.4997 6.36683 18.9775 5.3335 15.9997 5.3335C13.0219 5.3335 10.4997 6.36683 8.43301 8.4335C6.36634 10.5002 5.33301 13.0224 5.33301 16.0002C5.33301 17.5044 5.62879 18.9356 6.22034 20.2938C6.81167 21.6518 7.66801 22.8308 8.78934 23.8308C9.85779 23.1233 11.0061 22.5857 12.2343 22.2182C13.4626 21.8506 14.7177 21.6668 15.9997 21.6668ZM16.0017 23.6668C15.0379 23.6668 14.097 23.7907 13.179 24.0385C12.2612 24.2865 11.3878 24.6498 10.5587 25.1285C11.3707 25.6327 12.2381 26.0152 13.161 26.2758C14.0839 26.5365 15.0305 26.6668 16.0007 26.6668C16.9709 26.6668 17.9171 26.5365 18.8393 26.2758C19.7616 26.0152 20.6287 25.6327 21.4407 25.1285C20.6116 24.6498 19.7387 24.2865 18.822 24.0385C17.9053 23.7907 16.9652 23.6668 16.0017 23.6668ZM9.33301 14.5385C9.66812 14.5385 9.95279 14.4215 10.187 14.1875C10.421 13.9533 10.538 13.6686 10.538 13.3335C10.538 12.9984 10.421 12.7137 10.187 12.4795C9.95279 12.2455 9.66812 12.1285 9.33301 12.1285C8.9979 12.1285 8.71323 12.2455 8.47901 12.4795C8.24501 12.7137 8.12801 12.9984 8.12801 13.3335C8.12801 13.6686 8.24501 13.9533 8.47901 14.1875C8.71323 14.4215 8.9979 14.5385 9.33301 14.5385ZM13.333 10.5385C13.6681 10.5385 13.9528 10.4215 14.187 10.1875C14.421 9.95327 14.538 9.66861 14.538 9.3335C14.538 8.99839 14.421 8.71372 14.187 8.4795C13.9528 8.2455 13.6681 8.1285 13.333 8.1285C12.9979 8.1285 12.7132 8.2455 12.479 8.4795C12.245 8.71372 12.128 8.99839 12.128 9.3335C12.128 9.66861 12.245 9.95327 12.479 10.1875C12.7132 10.4215 12.9979 10.5385 13.333 10.5385ZM22.6663 14.5385C23.0015 14.5385 23.2861 14.4215 23.5203 14.1875C23.7543 13.9533 23.8713 13.6686 23.8713 13.3335C23.8713 12.9984 23.7543 12.7137 23.5203 12.4795C23.2861 12.2455 23.0015 12.1285 22.6663 12.1285C22.3312 12.1285 22.0466 12.2455 21.8123 12.4795C21.5783 12.7137 21.4613 12.9984 21.4613 13.3335C21.4613 13.6686 21.5783 13.9533 21.8123 14.1875C22.0466 14.4215 22.3312 14.5385 22.6663 14.5385ZM15.9997 18.3335C16.6475 18.3335 17.1983 18.1066 17.6523 17.6528C18.1061 17.1988 18.333 16.6479 18.333 16.0002C18.333 15.7113 18.2821 15.4344 18.1803 15.1695C18.0788 14.9044 17.9348 14.6651 17.7483 14.4515L19.7023 9.5335C19.815 9.27194 19.8162 9.01172 19.706 8.75283C19.5958 8.49372 19.4092 8.30783 19.1463 8.19516C18.8999 8.08227 18.6475 8.07983 18.389 8.18783C18.1303 8.29583 17.951 8.48283 17.851 8.74883L15.8713 13.6668C15.256 13.7095 14.7347 13.9531 14.3073 14.3975C13.88 14.8419 13.6663 15.3762 13.6663 16.0002C13.6663 16.6479 13.8932 17.1988 14.347 17.6528C14.801 18.1066 15.3519 18.3335 15.9997 18.3335Z"
          fill="white"/>
</svg>
