<svg width="32" height="32" viewBox="0 0 32 32" fill="none" xmlns="http://www.w3.org/2000/svg">
    <path d="M19.0253 26V24H22.32C22.792 24 23.1899 23.8402 23.5137 23.5207C23.8377 23.2009 23.9997 22.8137 23.9997 22.359V19.6153C23.9997 18.8222 24.2356 18.1111 24.7073 17.482C25.1791 16.8529 25.7937 16.4153 26.551 16.1693V15.8307C25.7937 15.5847 25.1791 15.1471 24.7073 14.518C24.2356 13.8889 23.9997 13.1778 23.9997 12.3847V9.641C23.9997 9.18633 23.8377 8.79911 23.5137 8.47933C23.1899 8.15978 22.792 8 22.32 8H19.0253V6H22.32C23.3458 6 24.2155 6.35467 24.929 7.064C25.6428 7.77356 25.9997 8.63256 25.9997 9.641V12.3847C25.9997 12.8564 26.1659 13.2522 26.4983 13.572C26.8308 13.8916 27.2372 14.0513 27.7177 14.0513H28.6663V17.9487H27.7177C27.2372 17.9487 26.8308 18.1084 26.4983 18.428C26.1659 18.7478 25.9997 19.1436 25.9997 19.6153V22.359C25.9997 23.3674 25.6428 24.2264 24.929 24.936C24.2155 25.6453 23.3458 26 22.32 26H19.0253ZM9.67934 26C8.66223 26 7.79467 25.6453 7.07667 24.936C6.35867 24.2264 5.99967 23.3674 5.99967 22.359V19.6153C5.99967 19.1436 5.83345 18.7478 5.50101 18.428C5.16856 18.1084 4.76212 17.9487 4.28167 17.9487H3.33301V14.0513H4.28167C4.76212 14.0513 5.16856 13.8916 5.50101 13.572C5.83345 13.2522 5.99967 12.8564 5.99967 12.3847V9.641C5.99967 8.63256 6.35867 7.77356 7.07667 7.064C7.79467 6.35467 8.66223 6 9.67934 6H12.9867V8H9.67934C9.21601 8 8.82023 8.15978 8.49201 8.47933C8.16379 8.79911 7.99967 9.18633 7.99967 9.641V12.3847C7.99967 13.1778 7.7659 13.8889 7.29834 14.518C6.83079 15.1471 6.21412 15.5847 5.44834 15.8307V16.1693C6.21412 16.4153 6.83079 16.8529 7.29834 17.482C7.7659 18.1111 7.99967 18.8222 7.99967 19.6153V22.359C7.99967 22.8137 8.16379 23.2009 8.49201 23.5207C8.82023 23.8402 9.21601 24 9.67934 24H12.9867V26H9.67934Z"
          fill="white"/>
</svg>
