<svg width="32" height="32" viewBox="0 0 32 32" fill="none" xmlns="http://www.w3.org/2000/svg">
    <path d="M5.74334 22.282H26.256C26.3758 22.282 26.4741 22.2436 26.551 22.1667C26.6279 22.0898 26.6663 21.9915 26.6663 21.8717V14.436H5.33301V21.8717C5.33301 21.9915 5.37145 22.0898 5.44834 22.1667C5.52523 22.2436 5.62356 22.282 5.74334 22.282ZM22.7417 20.0257C23.2043 20.0257 23.598 19.8638 23.9227 19.54C24.2476 19.2163 24.41 18.823 24.41 18.3604C24.41 17.8979 24.2481 17.5043 23.9243 17.1794C23.6006 16.8547 23.2073 16.6924 22.7447 16.6924C22.2822 16.6924 21.8886 16.8543 21.5637 17.178C21.239 17.5018 21.0767 17.8949 21.0767 18.3574C21.0767 18.82 21.2386 19.2137 21.5623 19.5384C21.8861 19.8633 22.2792 20.0257 22.7417 20.0257ZM28.6663 12.436H25.8483L22.8997 9.43604H9.09967L6.15101 12.436H3.33301L7.57934 8.1387C7.79801 7.91114 8.05468 7.73715 8.34934 7.6167C8.64401 7.49626 8.95401 7.43604 9.27934 7.43604H22.72C23.0453 7.43604 23.3553 7.49626 23.65 7.6167C23.9447 7.73715 24.2013 7.91114 24.42 8.1387L28.6663 12.436ZM5.74334 24.282C5.08045 24.282 4.51301 24.046 4.04101 23.574C3.56901 23.102 3.33301 22.5346 3.33301 21.8717V12.436H28.6663V21.8717C28.6663 22.5346 28.4303 23.102 27.9583 23.574C27.4863 24.046 26.9189 24.282 26.256 24.282H5.74334Z"
          fill="white"/>
</svg>
