<svg width="20" height="20" viewBox="0 0 20 20" fill="none" xmlns="http://www.w3.org/2000/svg">
    <g clip-path="url(#clip0_12_1063)">
        <path d="M18.3594 0H1.64322C0.738793 0 0 0.741325 0 1.64301V18.357C0 19.2613 0.738793 20 1.64322 20H18.3594C19.2612 20 20 19.2613 20 18.357V1.64301C20 0.741325 19.2612 0 18.3594 0ZM6.42566 16.459H3.73866V7.8286H6.42566V16.459ZM5.08216 6.65089C4.22243 6.65089 3.5257 5.95426 3.5257 5.09464C3.5257 4.23502 4.22243 3.54101 5.08216 3.54101C5.9419 3.54101 6.63862 4.23764 6.63862 5.09464C6.63862 5.95163 5.9419 6.65089 5.08216 6.65089ZM16.4769 16.459H13.7952V12.2634C13.7952 11.2618 13.7768 9.97634 12.4017 9.97634C11.0267 9.97634 10.7901 11.0647 10.7901 12.1898V16.459H8.10832V7.8286H10.6823V9.00894H10.7191C11.0766 8.3307 11.9521 7.61567 13.2588 7.61567C15.9748 7.61567 16.4769 9.40063 16.4769 11.7271V16.459Z"
              fill="#4D4C4D"/>
    </g>
    <defs>
        <clipPath id="clip0_12_1063">
            <rect width="20" height="20" fill="white"/>
        </clipPath>
    </defs>
</svg>
