<svg width="20" height="20" viewBox="0 0 20 20" fill="none" xmlns="http://www.w3.org/2000/svg">
    <g clip-path="url(#clip0_12_1070)">
        <path fill-rule="evenodd" clip-rule="evenodd"
              d="M10 0C4.47907 0 0 4.47663 0 10C0 15.5234 4.47907 20 10 20C15.5209 20 20 15.5234 20 10C20 4.47663 15.5234 0 10 0ZM12.9065 5.69133H12.741C12.3369 5.69133 11.9352 5.6816 11.5312 5.6962C10.9786 5.71568 10.5696 5.92502 10.5501 6.61392C10.538 7.11782 10.5307 8.27653 10.5307 8.27653C10.5307 8.27653 11.8281 8.27653 12.3929 8.27653H12.8384C12.7337 9.07984 12.6363 9.84907 12.5341 10.628H10.5477V16.4971H8.11344V10.6183H6.1222V8.27897H8.12561V8.1037C8.12561 7.63145 8.11587 7.16164 8.12561 6.69182C8.13535 6.3924 8.14752 6.08812 8.19864 5.79357C8.32522 5.08033 8.65385 4.47663 9.25024 4.04576C9.77361 3.67089 10.37 3.51753 11.0005 3.50536C11.4143 3.49562 11.8281 3.51509 12.242 3.53457C12.4659 3.5443 12.6899 3.57595 12.9065 3.59786V5.69133Z"
              fill="#4D4C4D"/>
    </g>
    <defs>
        <clipPath id="clip0_12_1070">
            <rect width="20" height="20" fill="white"/>
        </clipPath>
    </defs>
</svg>
